<svg version="1.1" id="Layer_1" xmlns="http://www.w3.org/2000/svg" xmlns:xlink="http://www.w3.org/1999/xlink" x="0px" y="0px"
	 width="100%" viewBox="0 0 1587 2245" enable-background="new 0 0 1587 2245" xml:space="preserve">
<path fill="#FFFFFF" opacity="1.000000" stroke="none" 
	d="
M972.000000,2246.000000 
	C648.000000,2246.000000 324.500000,2246.000000 1.000000,2246.000000 
	C1.000000,1497.666626 1.000000,749.333313 1.000000,1.000000 
	C530.000000,1.000000 1059.000000,1.000000 1588.000000,1.000000 
	C1588.000000,749.333313 1588.000000,1497.666626 1588.000000,2246.000000 
	C1382.833374,2246.000000 1177.666626,2246.000000 972.000000,2246.000000 
M694.256348,690.343994 
	C707.318787,713.111633 720.381226,735.879272 733.791138,759.252563 
	C752.229370,727.038025 770.276428,695.506897 788.457336,663.741943 
	C751.510071,663.741943 715.535828,663.741943 679.057312,663.741943 
	C684.208496,672.715088 689.077698,681.196838 694.256348,690.343994 
M1412.242432,729.182068 
	C1399.768799,707.389343 1387.295288,685.596619 1374.503174,663.247314 
	C1356.042603,695.483032 1338.010864,726.969971 1319.834106,758.710205 
	C1356.492432,758.710205 1392.591797,758.710205 1429.142578,758.710205 
	C1423.484375,748.774109 1418.076660,739.277649 1412.242432,729.182068 
M434.932678,755.415100 
	C434.396881,756.521484 433.861084,757.627930 433.331360,758.721802 
	C469.724518,758.721802 505.764740,758.721802 542.410950,758.721802 
	C524.082581,726.729614 506.040497,695.237122 487.726929,663.270752 
	C469.985016,694.212097 452.629059,724.480408 434.932678,755.415100 
M1006.002197,685.430786 
	C992.053589,709.805847 978.104980,734.180847 964.097595,758.658569 
	C1000.819824,758.658569 1036.832642,758.658569 1073.374878,758.658569 
	C1055.054688,726.687683 1037.029785,695.231995 1018.725464,663.288879 
	C1014.299194,670.964478 1010.316895,677.870178 1006.002197,685.430786 
M859.218506,710.499878 
	C859.218506,727.247559 859.218506,743.995300 859.218506,760.953735 
	C869.618958,760.953735 879.425720,761.153564 889.221680,760.914307 
	C913.469482,760.322083 933.467712,742.103760 935.901733,718.621704 
	C938.547607,693.097412 923.691589,670.557434 899.152222,665.782959 
	C886.312195,663.284729 872.822021,664.128540 859.218506,663.442505 
	C859.218506,679.604919 859.218506,694.552368 859.218506,710.499878 
M1155.298218,674.176575 
	C1150.467163,671.636047 1145.869019,668.400391 1140.760376,666.687927 
	C1126.552124,661.925293 1111.824707,664.822571 1097.344116,664.031189 
	C1097.344116,696.711304 1097.344116,728.768311 1097.344116,761.622986 
	C1110.798096,760.969482 1124.204590,761.854919 1136.937378,759.335571 
	C1155.500366,755.662476 1167.956299,743.435669 1172.394775,724.756897 
	C1177.097656,704.965637 1171.874390,687.869507 1155.298218,674.176575 
M238.795883,751.684937 
	C230.405396,741.615295 222.014923,731.545715 213.394821,721.200562 
	C214.995941,720.408081 216.158646,719.831909 217.321915,719.256897 
	C228.696030,713.634705 234.298035,702.713867 232.865051,688.955872 
	C231.621765,677.018921 224.049850,667.163391 211.739197,665.589783 
	C197.016724,663.707886 182.001770,664.114075 167.213348,663.533203 
	C167.213348,696.741028 167.213348,728.795471 167.213348,760.651367 
	C174.634949,760.651367 181.706436,760.651367 189.148224,760.651367 
	C189.148224,748.256042 189.148224,736.210510 189.148224,723.085693 
	C198.638962,735.358826 207.430283,746.786194 216.320068,758.136414 
	C217.249695,759.323364 218.739105,760.835388 220.006287,760.871277 
	C228.550354,761.113098 237.104568,760.997314 246.469986,760.997314 
	C243.631516,757.572327 241.426743,754.911987 238.795883,751.684937 
M271.028687,679.504028 
	C271.028687,706.577087 271.028687,733.650146 271.028687,760.694275 
	C289.765472,760.694275 307.967224,760.694275 326.210571,760.694275 
	C326.210571,754.283203 326.210571,748.182922 326.210571,741.542114 
	C315.069183,741.542114 304.163330,741.542114 293.418854,741.542114 
	C293.418854,734.749268 293.418854,728.507385 293.418854,721.827637 
	C304.149628,721.827637 314.541504,721.827637 324.769653,721.827637 
	C324.769653,715.275452 324.769653,709.181396 324.769653,702.632935 
	C314.114044,702.632935 303.717682,702.632935 293.303955,702.632935 
	C293.303955,696.063293 293.303955,689.957153 293.303955,683.312256 
	C304.412384,683.312256 315.301697,683.312256 326.223206,683.312256 
	C326.223206,676.660400 326.223206,670.554626 326.223206,664.342651 
	C307.772888,664.342651 289.559357,664.342651 271.028687,664.342651 
	C271.028687,669.240356 271.028687,673.873169 271.028687,679.504028 
M567.972961,725.500000 
	C567.972961,737.262390 567.972961,749.024841 567.972961,760.725342 
	C575.631775,760.725342 582.709290,760.725342 590.145264,760.725342 
	C590.145264,734.847168 590.145264,709.243774 590.145264,683.248596 
	C597.944641,683.248596 605.379639,683.248596 612.640991,683.248596 
	C612.640991,676.614014 612.640991,670.382385 612.640991,664.274048 
	C589.972656,664.274048 567.690857,664.274048 545.238892,664.274048 
	C545.238892,670.693665 545.238892,676.908630 545.238892,683.593079 
	C552.902893,683.593079 560.303345,683.593079 567.972961,683.593079 
	C567.972961,697.541992 567.972961,711.020996 567.972961,725.500000 
M359.635620,759.937012 
	C361.121368,760.293579 362.605286,760.950928 364.093109,760.959778 
	C377.576538,761.039917 391.060577,761.006775 404.544464,761.006775 
	C407.973785,761.006775 411.403137,761.006714 414.829468,761.006714 
	C414.829468,754.285156 414.829468,748.173218 414.829468,741.532288 
	C403.788147,741.532288 392.906219,741.532288 381.555359,741.532288 
	C381.555359,715.451782 381.555359,689.897766 381.555359,664.377563 
	C374.006012,664.377563 366.950806,664.377563 359.586426,664.377563 
	C359.586426,696.130188 359.586426,727.572693 359.635620,759.937012 
M641.218506,695.499878 
	C641.218506,717.238220 641.218506,738.976501 641.218506,760.759644 
	C648.870483,760.759644 655.941284,760.759644 663.072205,760.759644 
	C663.072205,728.446289 663.072205,696.380615 663.072205,664.358154 
	C655.750061,664.358154 648.669617,664.358154 641.218506,664.358154 
	C641.218506,674.597534 641.218506,684.548706 641.218506,695.499878 
M1256.580688,687.499634 
	C1256.580688,711.921814 1256.580688,736.343994 1256.580688,760.737793 
	C1264.148438,760.737793 1271.232300,760.737793 1278.404297,760.737793 
	C1278.404297,728.448975 1278.404297,696.429871 1278.404297,664.338135 
	C1271.054565,664.338135 1263.997681,664.338135 1256.580811,664.338135 
	C1256.580811,671.903992 1256.580811,679.201782 1256.580688,687.499634 
M824.919800,670.607666 
	C824.919800,668.513000 824.919800,666.418274 824.919800,664.376892 
	C817.215820,664.376892 810.146301,664.376892 803.171082,664.376892 
	C803.171082,696.714050 803.171082,728.744141 803.171082,760.700378 
	C810.544922,760.700378 817.611572,760.700378 824.608521,760.700378 
	C824.752869,760.091064 824.889893,759.782349 824.890015,759.473572 
	C824.906677,730.177856 824.912903,700.882141 824.919800,670.607666 
z"/>
<path fill="#040404" opacity="1.000000" stroke="none" 
	d="
M694.101562,690.011292 
	C689.077698,681.196838 684.208496,672.715088 679.057312,663.741943 
	C715.535828,663.741943 751.510071,663.741943 788.457336,663.741943 
	C770.276428,695.506897 752.229370,727.038025 733.791138,759.252563 
	C720.381226,735.879272 707.318787,713.111633 694.101562,690.011292 
z"/>
<path fill="#010101" opacity="1.000000" stroke="none" 
	d="
M1412.455566,729.481689 
	C1418.076660,739.277649 1423.484375,748.774109 1429.142578,758.710205 
	C1392.591797,758.710205 1356.492432,758.710205 1319.834106,758.710205 
	C1338.010864,726.969971 1356.042603,695.483032 1374.503174,663.247314 
	C1387.295288,685.596619 1399.768799,707.389343 1412.455566,729.481689 
z"/>
<path fill="#010101" opacity="1.000000" stroke="none" 
	d="
M435.102875,755.081909 
	C452.629059,724.480408 469.985016,694.212097 487.726929,663.270752 
	C506.040497,695.237122 524.082581,726.729614 542.410950,758.721802 
	C505.764740,758.721802 469.724518,758.721802 433.331360,758.721802 
	C433.861084,757.627930 434.396881,756.521484 435.102875,755.081909 
z"/>
<path fill="#010101" opacity="1.000000" stroke="none" 
	d="
M1006.168396,685.103333 
	C1010.316895,677.870178 1014.299194,670.964478 1018.725464,663.288879 
	C1037.029785,695.231995 1055.054688,726.687683 1073.374878,758.658569 
	C1036.832642,758.658569 1000.819824,758.658569 964.097595,758.658569 
	C978.104980,734.180847 992.053589,709.805847 1006.168396,685.103333 
z"/>
<path fill="#040404" opacity="1.000000" stroke="none" 
	d="
M859.218506,709.999878 
	C859.218506,694.552368 859.218506,679.604919 859.218506,663.442505 
	C872.822021,664.128540 886.312195,663.284729 899.152222,665.782959 
	C923.691589,670.557434 938.547607,693.097412 935.901733,718.621704 
	C933.467712,742.103760 913.469482,760.322083 889.221680,760.914307 
	C879.425720,761.153564 869.618958,760.953735 859.218506,760.953735 
	C859.218506,743.995300 859.218506,727.247559 859.218506,709.999878 
M881.295410,734.385010 
	C881.295410,736.508789 881.295410,738.632568 881.295410,740.947021 
	C893.030945,742.063110 901.935852,738.185486 908.023376,728.525635 
	C914.211426,718.706116 913.717407,704.401855 907.071106,695.018738 
	C901.043884,686.509460 891.192627,682.470947 881.295410,684.641479 
	C881.295410,700.851929 881.295410,717.130127 881.295410,734.385010 
z"/>
<path fill="#020202" opacity="1.000000" stroke="none" 
	d="
M1155.572388,674.404297 
	C1171.874390,687.869507 1177.097656,704.965637 1172.394775,724.756897 
	C1167.956299,743.435669 1155.500366,755.662476 1136.937378,759.335571 
	C1124.204590,761.854919 1110.798096,760.969482 1097.344116,761.622986 
	C1097.344116,728.768311 1097.344116,696.711304 1097.344116,664.031189 
	C1111.824707,664.822571 1126.552124,661.925293 1140.760376,666.687927 
	C1145.869019,668.400391 1150.467163,671.636047 1155.572388,674.404297 
M1147.337036,699.382019 
	C1141.214722,687.718384 1131.446655,682.491089 1119.067383,684.481445 
	C1119.067383,693.870667 1119.067505,703.316223 1119.067505,712.761841 
	C1119.067505,722.182739 1119.067383,731.603638 1119.067383,740.979309 
	C1133.328979,741.762695 1143.392090,735.916992 1147.902222,724.361877 
	C1151.055664,716.282776 1150.859375,708.129395 1147.337036,699.382019 
z"/>
<path fill="#020202" opacity="1.000000" stroke="none" 
	d="
M239.008926,751.968262 
	C241.426743,754.911987 243.631516,757.572327 246.469986,760.997314 
	C237.104568,760.997314 228.550354,761.113098 220.006287,760.871277 
	C218.739105,760.835388 217.249695,759.323364 216.320068,758.136414 
	C207.430283,746.786194 198.638962,735.358826 189.148224,723.085693 
	C189.148224,736.210510 189.148224,748.256042 189.148224,760.651367 
	C181.706436,760.651367 174.634949,760.651367 167.213348,760.651367 
	C167.213348,728.795471 167.213348,696.741028 167.213348,663.533203 
	C182.001770,664.114075 197.016724,663.707886 211.739197,665.589783 
	C224.049850,667.163391 231.621765,677.018921 232.865051,688.955872 
	C234.298035,702.713867 228.696030,713.634705 217.321915,719.256897 
	C216.158646,719.831909 214.995941,720.408081 213.394821,721.200562 
	C222.014923,731.545715 230.405396,741.615295 239.008926,751.968262 
M199.773605,682.233154 
	C196.207474,682.233154 192.641342,682.233154 189.168945,682.233154 
	C189.168945,690.597778 189.168945,698.691101 189.168945,706.756714 
	C202.308777,707.816162 207.910629,705.178833 209.549484,697.304016 
	C211.057571,690.057617 207.850204,684.746277 199.773605,682.233154 
z"/>
<path fill="#010101" opacity="1.000000" stroke="none" 
	d="
M271.028687,679.005005 
	C271.028687,673.873169 271.028687,669.240356 271.028687,664.342651 
	C289.559357,664.342651 307.772888,664.342651 326.223206,664.342651 
	C326.223206,670.554626 326.223206,676.660400 326.223206,683.312256 
	C315.301697,683.312256 304.412384,683.312256 293.303955,683.312256 
	C293.303955,689.957153 293.303955,696.063293 293.303955,702.632935 
	C303.717682,702.632935 314.114044,702.632935 324.769653,702.632935 
	C324.769653,709.181396 324.769653,715.275452 324.769653,721.827637 
	C314.541504,721.827637 304.149628,721.827637 293.418854,721.827637 
	C293.418854,728.507385 293.418854,734.749268 293.418854,741.542114 
	C304.163330,741.542114 315.069183,741.542114 326.210571,741.542114 
	C326.210571,748.182922 326.210571,754.283203 326.210571,760.694275 
	C307.967224,760.694275 289.765472,760.694275 271.028687,760.694275 
	C271.028687,733.650146 271.028687,706.577087 271.028687,679.005005 
z"/>
<path fill="#010101" opacity="1.000000" stroke="none" 
	d="
M567.972961,725.000000 
	C567.972961,711.020996 567.972961,697.541992 567.972961,683.593079 
	C560.303345,683.593079 552.902893,683.593079 545.238892,683.593079 
	C545.238892,676.908630 545.238892,670.693665 545.238892,664.274048 
	C567.690857,664.274048 589.972656,664.274048 612.640991,664.274048 
	C612.640991,670.382385 612.640991,676.614014 612.640991,683.248596 
	C605.379639,683.248596 597.944641,683.248596 590.145264,683.248596 
	C590.145264,709.243774 590.145264,734.847168 590.145264,760.725342 
	C582.709290,760.725342 575.631775,760.725342 567.972961,760.725342 
	C567.972961,749.024841 567.972961,737.262390 567.972961,725.000000 
z"/>
<path fill="#040404" opacity="1.000000" stroke="none" 
	d="
M359.611023,759.476135 
	C359.586426,727.572693 359.586426,696.130188 359.586426,664.377563 
	C366.950806,664.377563 374.006012,664.377563 381.555359,664.377563 
	C381.555359,689.897766 381.555359,715.451782 381.555359,741.532288 
	C392.906219,741.532288 403.788147,741.532288 414.829468,741.532288 
	C414.829468,748.173218 414.829468,754.285156 414.829468,761.006714 
	C411.403137,761.006714 407.973785,761.006775 404.544464,761.006775 
	C391.060577,761.006775 377.576538,761.039917 364.093109,760.959778 
	C362.605286,760.950928 361.121368,760.293579 359.611023,759.476135 
z"/>
<path fill="#040404" opacity="1.000000" stroke="none" 
	d="
M641.218506,694.999878 
	C641.218506,684.548706 641.218506,674.597534 641.218506,664.358154 
	C648.669617,664.358154 655.750061,664.358154 663.072205,664.358154 
	C663.072205,696.380615 663.072205,728.446289 663.072205,760.759644 
	C655.941284,760.759644 648.870483,760.759644 641.218506,760.759644 
	C641.218506,738.976501 641.218506,717.238220 641.218506,694.999878 
z"/>
<path fill="#040404" opacity="1.000000" stroke="none" 
	d="
M1256.580811,686.999634 
	C1256.580811,679.201782 1256.580811,671.903992 1256.580811,664.338135 
	C1263.997681,664.338135 1271.054565,664.338135 1278.404297,664.338135 
	C1278.404297,696.429871 1278.404297,728.448975 1278.404297,760.737793 
	C1271.232300,760.737793 1264.148438,760.737793 1256.580688,760.737793 
	C1256.580688,736.343994 1256.580688,711.921814 1256.580811,686.999634 
z"/>
<path fill="#020202" opacity="1.000000" stroke="none" 
	d="
M824.919800,671.097046 
	C824.912903,700.882141 824.906677,730.177856 824.890015,759.473572 
	C824.889893,759.782349 824.752869,760.091064 824.608521,760.700378 
	C817.611572,760.700378 810.544922,760.700378 803.171082,760.700378 
	C803.171082,728.744141 803.171082,696.714050 803.171082,664.376892 
	C810.146301,664.376892 817.215820,664.376892 824.919800,664.376892 
	C824.919800,666.418274 824.919800,668.513000 824.919800,671.097046 
z"/>
<path fill="#FBFBFB" opacity="1.000000" stroke="none" 
	d="
M881.295410,733.896667 
	C881.295410,717.130127 881.295410,700.851929 881.295410,684.641479 
	C891.192627,682.470947 901.043884,686.509460 907.071106,695.018738 
	C913.717407,704.401855 914.211426,718.706116 908.023376,728.525635 
	C901.935852,738.185486 893.030945,742.063110 881.295410,740.947021 
	C881.295410,738.632568 881.295410,736.508789 881.295410,733.896667 
z"/>
<path fill="#FBFBFB" opacity="1.000000" stroke="none" 
	d="
M1147.532471,699.713989 
	C1150.859375,708.129395 1151.055664,716.282776 1147.902222,724.361877 
	C1143.392090,735.916992 1133.328979,741.762695 1119.067383,740.979309 
	C1119.067383,731.603638 1119.067505,722.182739 1119.067505,712.761841 
	C1119.067505,703.316223 1119.067383,693.870667 1119.067383,684.481445 
	C1131.446655,682.491089 1141.214722,687.718384 1147.532471,699.713989 
z"/>
<path fill="#FBFBFB" opacity="1.000000" stroke="none" 
	d="
M200.182098,682.350647 
	C207.850204,684.746277 211.057571,690.057617 209.549484,697.304016 
	C207.910629,705.178833 202.308777,707.816162 189.168945,706.756714 
	C189.168945,698.691101 189.168945,690.597778 189.168945,682.233154 
	C192.641342,682.233154 196.207474,682.233154 200.182098,682.350647 
z"/>
</svg>