<svg version="1.1" id="Layer_1" xmlns="http://www.w3.org/2000/svg" xmlns:xlink="http://www.w3.org/1999/xlink" x="0px" y="0px"
	 width="100%" viewBox="0 0 1024 1024" enable-background="new 0 0 1024 1024" xml:space="preserve">
<path fill="#FFFFFF" opacity="1.000000" stroke="none" 
	d="
M562.143555,509.108276 
	C593.096069,487.159851 627.181396,473.587677 663.933716,466.405884 
	C665.711609,466.058472 667.568481,465.988403 669.386780,466.003510 
	C672.285278,466.027557 673.763977,467.365662 674.231873,470.487183 
	C677.142090,489.898987 679.562195,509.392883 684.677063,528.425964 
	C687.176941,537.728333 685.213013,541.643372 676.939514,546.686890 
	C668.972717,551.543396 668.103394,554.405701 672.268127,563.032227 
	C680.378174,579.830261 688.395569,596.676697 696.805664,613.323975 
	C699.512634,618.682312 699.394592,623.878113 698.144165,629.304138 
	C697.321533,632.873718 694.049133,633.876221 691.151184,635.098694 
	C685.831177,637.343018 680.046021,637.120728 674.487366,638.104675 
	C661.802368,640.350037 656.961121,649.673950 662.479614,661.364380 
	C665.510559,667.785339 664.679932,670.878479 657.834961,673.436035 
	C653.169739,675.179199 651.978333,677.182678 652.967957,682.122498 
	C654.248535,688.514038 652.303528,690.784729 646.151917,692.888977 
	C633.773743,697.123108 631.829163,699.899231 632.158813,712.874451 
	C632.322632,719.322815 633.668518,725.810791 631.429932,732.173889 
	C627.671021,742.858704 617.769104,749.573364 605.143555,750.240234 
	C593.437805,750.858521 582.913574,746.471863 572.299744,742.622925 
	C564.320679,739.729492 556.573181,736.202393 548.682190,733.059021 
	C544.184021,731.267212 539.586548,729.861511 534.634705,729.908569 
	C527.564697,729.975769 524.239258,732.724976 523.361938,739.834961 
	C522.811768,744.293274 522.351990,748.789673 522.288025,753.275146 
	C522.181335,760.766479 519.334534,766.727722 513.657593,771.610657 
	C507.984497,776.490173 502.244110,781.297180 497.361389,787.064514 
	C493.448822,791.685974 489.849182,796.500427 487.639099,802.092285 
	C486.001770,806.235168 483.492065,806.782349 479.486267,806.359985 
	C453.664124,803.637146 429.420929,795.703430 406.121277,784.575867 
	C377.341522,770.831055 352.372650,751.977600 331.084961,728.250671 
	C327.749847,724.533447 324.714508,720.548401 321.417297,716.795593 
	C318.608948,713.599060 318.527985,710.648987 320.702240,706.867065 
	C328.090942,694.014893 335.054626,680.935974 339.751312,666.778137 
	C340.960907,663.131897 341.001190,659.824463 339.714752,656.117310 
	C336.717194,647.478943 334.413513,638.598450 331.370544,629.977783 
	C329.649811,625.102905 331.384552,622.599915 335.528656,620.459656 
	C350.637146,612.656738 366.568390,609.105591 383.629425,609.467773 
	C410.033691,610.028442 433.938934,618.401184 456.370850,631.612000 
	C466.713348,637.703125 476.456116,644.710571 485.104370,653.130127 
	C486.855927,654.835388 488.495575,656.729919 491.448395,658.031128 
	C489.455780,643.199829 490.130829,628.840332 492.483154,614.549927 
	C496.313538,591.280334 505.569061,570.290771 519.330078,551.239136 
	C531.143677,534.883789 545.516907,521.099182 562.143555,509.108276 
z"/>
<path fill="#FFFFFF" opacity="1.000000" stroke="none" 
	d="
M424.747833,572.783813 
	C424.038361,555.419556 431.846222,544.216492 446.022369,541.757080 
	C460.497650,539.245728 474.027802,548.885254 476.761414,563.656982 
	C479.306366,577.408936 469.644592,591.233154 455.878754,594.333984 
	C444.074249,596.992859 427.603363,589.743835 424.747833,572.783813 
z"/>
</svg>